<svg width="22" height="19" viewBox="0 0 22 19" fill="none" xmlns="http://www.w3.org/2000/svg">
<path d="M14.6678 9.46672C14.6678 11.4467 13.0678 13.0467 11.0878 13.0467C9.10781 13.0467 7.50781 11.4467 7.50781 9.46672C7.50781 7.48672 9.10781 5.88672 11.0878 5.88672C13.0678 5.88672 14.6678 7.48672 14.6678 9.46672Z" stroke="#CCCCCC" stroke-width="1.5" stroke-linecap="round" stroke-linejoin="round"/>
<path d="M11.0858 17.7375C14.6158 17.7375 17.9058 15.6575 20.1958 12.0575C21.0958 10.6475 21.0958 8.2775 20.1958 6.8675C17.9058 3.2675 14.6158 1.1875 11.0858 1.1875C7.55578 1.1875 4.26578 3.2675 1.97578 6.8675C1.07578 8.2775 1.07578 10.6475 1.97578 12.0575C4.26578 15.6575 7.55578 17.7375 11.0858 17.7375Z" stroke="#CCCCCC" stroke-width="1.5" stroke-linecap="round" stroke-linejoin="round"/>
</svg>
