<svg width="120" height="120" viewBox="0 0 120 120" fill="none" xmlns="http://www.w3.org/2000/svg">
<path d="M115.137 95.1242C115.137 97.1137 114.695 99.1586 113.756 101.148C112.816 103.138 111.6 105.017 109.998 106.785C107.29 109.77 104.305 111.925 100.934 113.307C97.6181 114.688 94.0259 115.407 90.1573 115.407C84.5201 115.407 78.4962 114.08 72.1406 111.372C65.785 108.664 59.4294 105.017 53.1291 100.43C46.7078 95.7326 40.6484 90.5599 35.0019 84.9552C29.4133 79.3292 24.2588 73.288 19.5827 66.8833C15.0509 60.583 11.4034 54.2827 8.75063 48.0376C6.09787 41.7373 4.77148 35.7134 4.77148 29.9657C4.77148 26.2076 5.43467 22.6153 6.76106 19.2994C8.08744 15.9282 10.1875 12.8333 13.1166 10.07C16.6536 6.58824 20.5223 4.875 24.6119 4.875C26.1594 4.875 27.7068 5.2066 29.0885 5.86979C30.5254 6.53298 31.7965 7.52776 32.7913 8.96467L45.613 27.0366C46.6077 28.4183 47.3262 29.6894 47.8236 30.9052C48.321 32.0658 48.5973 33.2264 48.5973 34.2764C48.5973 35.6028 48.2105 36.9292 47.4367 38.2003C46.7183 39.4714 45.6682 40.7978 44.3418 42.1242L40.1416 46.4902C39.5337 47.0981 39.2574 47.8166 39.2574 48.7008C39.2574 49.143 39.3127 49.5298 39.4232 49.9719C39.589 50.4141 39.7548 50.7457 39.8653 51.0773C40.8601 52.901 42.5733 55.2775 45.005 58.1513C47.492 61.0251 50.1448 63.9542 53.0186 66.8833C56.0029 69.8124 58.8768 72.5204 61.8059 75.0074C64.6797 77.4391 67.0561 79.0971 68.9352 80.0918C69.2115 80.2024 69.5431 80.3682 69.9299 80.534C70.3721 80.6998 70.8142 80.755 71.3116 80.755C72.2511 80.755 72.9696 80.4234 73.5775 79.8155L77.7777 75.6706C79.1593 74.2889 80.4857 73.2389 81.7568 72.5757C83.028 71.802 84.2991 71.4151 85.6807 71.4151C86.7308 71.4151 87.8361 71.6362 89.0519 72.1336C90.2678 72.631 91.5389 73.3494 92.9206 74.2889L111.214 87.2764C112.65 88.2712 113.645 89.4318 114.253 90.8134C114.806 92.1951 115.137 93.5767 115.137 95.1242Z" stroke="#AAAAAA" stroke-width="8.28988" stroke-miterlimit="10"/>
</svg>
